<svg width="1600" height="500" viewBox="0 0 1600 500" fill="none" xmlns="http://www.w3.org/2000/svg">
<g clip-path="url(#clip0_362_1019)">
<path d="M614.592 203.546C613.376 203.546 612.344 203.121 611.493 202.27C610.642 201.42 610.217 200.387 610.217 199.172V80.5142C610.217 79.1776 610.642 78.0839 611.493 77.2334C612.344 76.3828 613.376 75.9575 614.592 75.9575H659.065C671.338 75.9575 681.424 77.8409 689.322 81.6078C697.342 85.3747 703.357 90.9643 707.367 98.3766C711.498 105.789 713.625 114.842 713.746 125.535C713.989 130.881 714.111 135.62 714.111 139.752C714.111 143.883 713.989 148.562 713.746 153.787C713.503 165.087 711.437 174.444 707.549 181.856C703.661 189.147 697.767 194.615 689.869 198.26C682.092 201.784 672.128 203.546 659.977 203.546H614.592ZM635.553 182.585H659.065C665.87 182.585 671.399 181.613 675.652 179.669C679.905 177.725 683.003 174.626 684.948 170.373C687.013 165.999 688.107 160.288 688.228 153.24C688.35 149.594 688.411 146.435 688.411 143.762C688.532 140.967 688.532 138.233 688.411 135.56C688.411 132.765 688.35 129.606 688.228 126.082C687.985 116.118 685.494 108.766 680.755 104.027C676.016 99.288 668.483 96.9185 658.154 96.9185H635.553V182.585Z" fill="#232526"/>
<path d="M787.406 205.369C776.591 205.369 767.296 203.607 759.519 200.083C751.742 196.438 745.666 190.909 741.292 183.497C736.917 175.963 734.548 166.606 734.183 155.427C734.062 150.202 734.001 145.038 734.001 139.934C734.001 134.831 734.062 129.605 734.183 124.259C734.548 113.201 736.978 103.966 741.474 96.5539C745.97 89.1416 752.106 83.552 759.883 79.7851C767.782 76.0182 776.956 74.1348 787.406 74.1348C797.856 74.1348 807.03 76.0182 814.929 79.7851C822.827 83.552 829.024 89.1416 833.52 96.5539C838.016 103.966 840.446 113.201 840.811 124.259C841.054 129.605 841.175 134.831 841.175 139.934C841.175 145.038 841.054 150.202 840.811 155.427C840.446 166.606 838.077 175.963 833.702 183.497C829.328 190.909 823.192 196.438 815.293 200.083C807.516 203.607 798.221 205.369 787.406 205.369ZM787.406 184.408C795.304 184.408 801.744 182.099 806.727 177.482C811.709 172.743 814.382 165.087 814.746 154.516C814.989 149.169 815.111 144.248 815.111 139.752C815.111 135.134 814.989 130.213 814.746 124.988C814.503 117.94 813.167 112.229 810.736 107.855C808.428 103.359 805.268 100.139 801.258 98.1944C797.248 96.1286 792.631 95.0958 787.406 95.0958C782.302 95.0958 777.746 96.1286 773.736 98.1944C769.726 100.139 766.506 103.359 764.075 107.855C761.767 112.229 760.491 117.94 760.248 124.988C760.126 130.213 760.065 135.134 760.065 139.752C760.065 144.248 760.126 149.169 760.248 154.516C760.612 165.087 763.286 172.743 768.268 177.482C773.25 182.099 779.629 184.408 787.406 184.408Z" fill="#232526"/>
<path d="M956.339 205.369C945.159 205.369 935.621 203.425 927.722 199.536C919.945 195.648 913.87 190.058 909.495 182.767C905.242 175.355 902.934 166.545 902.569 156.338C902.448 151.113 902.387 145.524 902.387 139.57C902.387 133.494 902.448 127.783 902.569 122.436C902.934 112.351 905.242 103.723 909.495 96.5539C913.87 89.3847 920.006 83.8558 927.905 79.9674C935.924 76.079 945.402 74.1348 956.339 74.1348C965.209 74.1348 972.986 75.3499 979.669 77.7802C986.352 80.0889 991.881 83.1267 996.256 86.8936C1000.75 90.539 1004.09 94.4882 1006.28 98.7412C1008.59 102.994 1009.8 106.943 1009.93 110.589C1010.05 111.682 1009.74 112.594 1009.01 113.323C1008.29 114.052 1007.31 114.416 1006.1 114.416H987.324C986.109 114.416 985.198 114.173 984.59 113.687C983.983 113.201 983.436 112.472 982.95 111.5C981.978 108.948 980.459 106.457 978.393 104.027C976.327 101.475 973.533 99.3487 970.009 97.6476C966.485 95.9464 961.928 95.0958 956.339 95.0958C948.076 95.0958 941.453 97.283 936.471 101.657C931.611 106.032 928.998 113.262 928.634 123.348C928.269 133.919 928.269 144.612 928.634 155.427C928.998 165.756 931.671 173.168 936.653 177.664C941.757 182.16 948.44 184.408 956.703 184.408C962.171 184.408 967.032 183.436 971.285 181.492C975.659 179.547 979.062 176.51 981.492 172.378C984.044 168.247 985.319 162.961 985.319 156.521V150.87H963.083C961.867 150.87 960.835 150.445 959.984 149.594C959.133 148.744 958.708 147.65 958.708 146.314V136.653C958.708 135.317 959.133 134.223 959.984 133.372C960.835 132.522 961.867 132.097 963.083 132.097H1006.65C1007.98 132.097 1009.01 132.522 1009.74 133.372C1010.59 134.223 1011.02 135.317 1011.02 136.653V155.792C1011.02 165.999 1008.77 174.808 1004.28 182.221C999.901 189.633 993.582 195.344 985.319 199.354C977.178 203.364 967.518 205.369 956.339 205.369Z" fill="#232526"/>
<path d="M1083.42 205.369C1072.6 205.369 1063.31 203.607 1055.53 200.083C1047.75 196.438 1041.68 190.909 1037.3 183.497C1032.93 175.963 1030.56 166.606 1030.19 155.427C1030.07 150.202 1030.01 145.038 1030.01 139.934C1030.01 134.831 1030.07 129.605 1030.19 124.259C1030.56 113.201 1032.99 103.966 1037.48 96.5539C1041.98 89.1416 1048.12 83.552 1055.89 79.7851C1063.79 76.0182 1072.97 74.1348 1083.42 74.1348C1093.87 74.1348 1103.04 76.0182 1110.94 79.7851C1118.84 83.552 1125.03 89.1416 1129.53 96.5539C1134.03 103.966 1136.46 113.201 1136.82 124.259C1137.06 129.605 1137.19 134.831 1137.19 139.934C1137.19 145.038 1137.06 150.202 1136.82 155.427C1136.46 166.606 1134.09 175.963 1129.71 183.497C1125.34 190.909 1119.2 196.438 1111.3 200.083C1103.53 203.607 1094.23 205.369 1083.42 205.369ZM1083.42 184.408C1091.31 184.408 1097.75 182.099 1102.74 177.482C1107.72 172.743 1110.39 165.087 1110.76 154.516C1111 149.169 1111.12 144.248 1111.12 139.752C1111.12 135.134 1111 130.213 1110.76 124.988C1110.51 117.94 1109.18 112.229 1106.75 107.855C1104.44 103.359 1101.28 100.139 1097.27 98.1944C1093.26 96.1286 1088.64 95.0958 1083.42 95.0958C1078.31 95.0958 1073.76 96.1286 1069.75 98.1944C1065.74 100.139 1062.52 103.359 1060.09 107.855C1057.78 112.229 1056.5 117.94 1056.26 124.988C1056.14 130.213 1056.08 135.134 1056.08 139.752C1056.08 144.248 1056.14 149.169 1056.26 154.516C1056.62 165.087 1059.3 172.743 1064.28 177.482C1069.26 182.099 1075.64 184.408 1083.42 184.408Z" fill="#232526"/>
<path d="M1210.15 205.369C1199.34 205.369 1190.04 203.607 1182.26 200.083C1174.49 196.438 1168.41 190.909 1164.04 183.497C1159.66 175.963 1157.29 166.606 1156.93 155.427C1156.81 150.202 1156.75 145.038 1156.75 139.934C1156.75 134.831 1156.81 129.605 1156.93 124.259C1157.29 113.201 1159.72 103.966 1164.22 96.5539C1168.71 89.1416 1174.85 83.552 1182.63 79.7851C1190.53 76.0182 1199.7 74.1348 1210.15 74.1348C1220.6 74.1348 1229.77 76.0182 1237.67 79.7851C1245.57 83.552 1251.77 89.1416 1256.26 96.5539C1260.76 103.966 1263.19 113.201 1263.56 124.259C1263.8 129.605 1263.92 134.831 1263.92 139.934C1263.92 145.038 1263.8 150.202 1263.56 155.427C1263.19 166.606 1260.82 175.963 1256.45 183.497C1252.07 190.909 1245.94 196.438 1238.04 200.083C1230.26 203.607 1220.97 205.369 1210.15 205.369ZM1210.15 184.408C1218.05 184.408 1224.49 182.099 1229.47 177.482C1234.45 172.743 1237.13 165.087 1237.49 154.516C1237.73 149.169 1237.86 144.248 1237.86 139.752C1237.86 135.134 1237.73 130.213 1237.49 124.988C1237.25 117.94 1235.91 112.229 1233.48 107.855C1231.17 103.359 1228.01 100.139 1224 98.1944C1219.99 96.1286 1215.38 95.0958 1210.15 95.0958C1205.05 95.0958 1200.49 96.1286 1196.48 98.1944C1192.47 100.139 1189.25 103.359 1186.82 107.855C1184.51 112.229 1183.24 117.94 1182.99 124.988C1182.87 130.213 1182.81 135.134 1182.81 139.752C1182.81 144.248 1182.87 149.169 1182.99 154.516C1183.36 165.087 1186.03 172.743 1191.01 177.482C1195.99 182.099 1202.37 184.408 1210.15 184.408Z" fill="#232526"/>
<path d="M1292.23 203.546C1291.01 203.546 1289.98 203.121 1289.13 202.27C1288.28 201.42 1287.85 200.387 1287.85 199.172V80.5142C1287.85 79.1776 1288.28 78.0839 1289.13 77.2334C1289.98 76.3828 1291.01 75.9575 1292.23 75.9575H1336.7C1348.98 75.9575 1359.06 77.8409 1366.96 81.6078C1374.98 85.3747 1380.99 90.9643 1385 98.3766C1389.14 105.789 1391.26 114.842 1391.38 125.535C1391.63 130.881 1391.75 135.62 1391.75 139.752C1391.75 143.883 1391.63 148.562 1391.38 153.787C1391.14 165.087 1389.07 174.444 1385.19 181.856C1381.3 189.147 1375.4 194.615 1367.51 198.26C1359.73 201.784 1349.77 203.546 1337.61 203.546H1292.23ZM1313.19 182.585H1336.7C1343.51 182.585 1349.04 181.613 1353.29 179.669C1357.54 177.725 1360.64 174.626 1362.58 170.373C1364.65 165.999 1365.74 160.288 1365.87 153.24C1365.99 149.594 1366.05 146.435 1366.05 143.762C1366.17 140.967 1366.17 138.233 1366.05 135.56C1366.05 132.765 1365.99 129.606 1365.87 126.082C1365.62 116.118 1363.13 108.766 1358.39 104.027C1353.65 99.288 1346.12 96.9185 1335.79 96.9185H1313.19V182.585Z" fill="#232526"/>
<path d="M614.774 419.546C613.437 419.546 612.344 419.121 611.493 418.27C610.642 417.42 610.217 416.387 610.217 415.172V296.514C610.217 295.178 610.642 294.084 611.493 293.233C612.344 292.383 613.437 291.957 614.774 291.957H629.173C630.874 291.957 632.15 292.444 633.001 293.416C633.851 294.266 634.398 294.935 634.641 295.421L669.819 361.038L705.362 295.421C705.605 294.935 706.152 294.266 707.002 293.416C707.853 292.444 709.129 291.957 710.83 291.957H725.047C726.384 291.957 727.477 292.383 728.328 293.233C729.178 294.084 729.604 295.178 729.604 296.514V415.172C729.604 416.387 729.178 417.42 728.328 418.27C727.477 419.121 726.384 419.546 725.047 419.546H709.736C708.4 419.546 707.306 419.121 706.455 418.27C705.726 417.42 705.362 416.387 705.362 415.172V336.249L679.844 384.915C679.236 386.009 678.447 386.981 677.475 387.831C676.502 388.56 675.227 388.925 673.647 388.925H666.174C664.473 388.925 663.136 388.56 662.164 387.831C661.313 386.981 660.584 386.009 659.977 384.915L634.459 336.249V415.172C634.459 416.387 634.034 417.42 633.183 418.27C632.332 419.121 631.3 419.546 630.084 419.546H614.774Z" fill="#232526"/>
<path d="M806.986 421.369C796.171 421.369 786.875 419.607 779.098 416.083C771.322 412.438 765.246 406.909 760.871 399.497C756.497 391.963 754.127 382.606 753.763 371.427C753.641 366.202 753.581 361.038 753.581 355.934C753.581 350.831 753.641 345.605 753.763 340.259C754.127 329.201 756.558 319.966 761.054 312.554C765.55 305.142 771.686 299.552 779.463 295.785C787.361 292.018 796.536 290.135 806.986 290.135C817.436 290.135 826.61 292.018 834.508 295.785C842.407 299.552 848.604 305.142 853.1 312.554C857.596 319.966 860.026 329.201 860.391 340.259C860.634 345.605 860.755 350.831 860.755 355.934C860.755 361.038 860.634 366.202 860.391 371.427C860.026 382.606 857.657 391.963 853.282 399.497C848.908 406.909 842.771 412.438 834.873 416.083C827.096 419.607 817.8 421.369 806.986 421.369ZM806.986 400.408C814.884 400.408 821.324 398.099 826.306 393.482C831.288 388.743 833.962 381.087 834.326 370.516C834.569 365.169 834.691 360.248 834.691 355.752C834.691 351.134 834.569 346.213 834.326 340.988C834.083 333.94 832.746 328.229 830.316 323.855C828.007 319.359 824.848 316.139 820.838 314.194C816.828 312.129 812.211 311.096 806.986 311.096C801.882 311.096 797.325 312.129 793.315 314.194C789.306 316.139 786.085 319.359 783.655 323.855C781.346 328.229 780.071 333.94 779.828 340.988C779.706 346.213 779.645 351.134 779.645 355.752C779.645 360.248 779.706 365.169 779.828 370.516C780.192 381.087 782.865 388.743 787.847 393.482C792.829 398.099 799.209 400.408 806.986 400.408Z" fill="#232526"/>
<path d="M918.135 419.546C916.19 419.546 914.671 419.06 913.578 418.088C912.484 417.116 911.694 415.901 911.208 414.443L872.203 297.426C871.96 296.818 871.838 296.271 871.838 295.785C871.838 294.692 872.203 293.78 872.932 293.051C873.661 292.322 874.572 291.957 875.666 291.957H891.706C893.407 291.957 894.683 292.444 895.533 293.416C896.505 294.266 897.113 295.117 897.356 295.967L928.159 389.836L958.781 295.967C959.145 295.117 959.753 294.266 960.603 293.416C961.576 292.444 962.912 291.957 964.613 291.957H980.653C981.625 291.957 982.476 292.322 983.205 293.051C984.055 293.78 984.481 294.692 984.481 295.785C984.481 296.271 984.359 296.818 984.116 297.426L945.111 414.443C944.624 415.901 943.835 417.116 942.741 418.088C941.647 419.06 940.128 419.546 938.184 419.546H918.135Z" fill="#232526"/>
<path d="M1008.14 419.546C1006.93 419.546 1005.9 419.121 1005.05 418.27C1004.2 417.42 1003.77 416.387 1003.77 415.172V296.514C1003.77 295.178 1004.2 294.084 1005.05 293.233C1005.9 292.383 1006.93 291.957 1008.14 291.957H1088.34C1089.68 291.957 1090.77 292.383 1091.62 293.233C1092.47 294.084 1092.9 295.178 1092.9 296.514V308.544C1092.9 309.759 1092.47 310.792 1091.62 311.643C1090.77 312.493 1089.68 312.918 1088.34 312.918H1028.38V345.18H1084.33C1085.67 345.18 1086.76 345.605 1087.61 346.456C1088.46 347.185 1088.89 348.218 1088.89 349.555V360.855C1088.89 362.192 1088.46 363.286 1087.61 364.136C1086.76 364.865 1085.67 365.23 1084.33 365.23H1028.38V398.585H1089.8C1091.14 398.585 1092.23 399.011 1093.08 399.861C1093.93 400.712 1094.36 401.805 1094.36 403.142V415.172C1094.36 416.387 1093.93 417.42 1093.08 418.27C1092.23 419.121 1091.14 419.546 1089.8 419.546H1008.14Z" fill="#232526"/>
<path d="M1121.71 419.546C1120.37 419.546 1119.28 419.121 1118.43 418.27C1117.58 417.42 1117.15 416.387 1117.15 415.172V296.514C1117.15 295.178 1117.58 294.084 1118.43 293.233C1119.28 292.383 1120.37 291.957 1121.71 291.957H1136.11C1137.81 291.957 1139.09 292.444 1139.94 293.416C1140.79 294.266 1141.34 294.935 1141.58 295.421L1176.76 361.038L1212.3 295.421C1212.54 294.935 1213.09 294.266 1213.94 293.416C1214.79 292.444 1216.07 291.957 1217.77 291.957H1231.98C1233.32 291.957 1234.41 292.383 1235.27 293.233C1236.12 294.084 1236.54 295.178 1236.54 296.514V415.172C1236.54 416.387 1236.12 417.42 1235.27 418.27C1234.41 419.121 1233.32 419.546 1231.98 419.546H1216.67C1215.34 419.546 1214.24 419.121 1213.39 418.27C1212.66 417.42 1212.3 416.387 1212.3 415.172V336.249L1186.78 384.915C1186.17 386.009 1185.38 386.981 1184.41 387.831C1183.44 388.56 1182.16 388.925 1180.58 388.925H1173.11C1171.41 388.925 1170.07 388.56 1169.1 387.831C1168.25 386.981 1167.52 386.009 1166.91 384.915L1141.4 336.249V415.172C1141.4 416.387 1140.97 417.42 1140.12 418.27C1139.27 419.121 1138.24 419.546 1137.02 419.546H1121.71Z" fill="#232526"/>
<path d="M1269.27 419.546C1268.05 419.546 1267.02 419.121 1266.17 418.27C1265.32 417.42 1264.89 416.387 1264.89 415.172V296.514C1264.89 295.178 1265.32 294.084 1266.17 293.233C1267.02 292.383 1268.05 291.957 1269.27 291.957H1349.47C1350.8 291.957 1351.9 292.383 1352.75 293.233C1353.6 294.084 1354.02 295.178 1354.02 296.514V308.544C1354.02 309.759 1353.6 310.792 1352.75 311.643C1351.9 312.493 1350.8 312.918 1349.47 312.918H1289.5V345.18H1345.46C1346.79 345.18 1347.89 345.605 1348.74 346.456C1349.59 347.185 1350.01 348.218 1350.01 349.555V360.855C1350.01 362.192 1349.59 363.286 1348.74 364.136C1347.89 364.865 1346.79 365.23 1345.46 365.23H1289.5V398.585H1350.92C1352.26 398.585 1353.35 399.011 1354.2 399.861C1355.06 400.712 1355.48 401.805 1355.48 403.142V415.172C1355.48 416.387 1355.06 417.42 1354.2 418.27C1353.35 419.121 1352.26 419.546 1350.92 419.546H1269.27Z" fill="#232526"/>
<path d="M1382.65 419.546C1381.44 419.546 1380.4 419.121 1379.55 418.27C1378.7 417.42 1378.28 416.387 1378.28 415.172V296.514C1378.28 295.178 1378.7 294.084 1379.55 293.233C1380.4 292.383 1381.44 291.957 1382.65 291.957H1396.69C1398.39 291.957 1399.6 292.383 1400.33 293.233C1401.18 293.962 1401.73 294.509 1401.97 294.874L1454.47 376.531V296.514C1454.47 295.178 1454.83 294.084 1455.56 293.233C1456.41 292.383 1457.5 291.957 1458.84 291.957H1474.15C1475.49 291.957 1476.58 292.383 1477.43 293.233C1478.28 294.084 1478.71 295.178 1478.71 296.514V414.99C1478.71 416.326 1478.28 417.42 1477.43 418.27C1476.58 419.121 1475.55 419.546 1474.33 419.546H1460.12C1458.42 419.546 1457.2 419.121 1456.47 418.27C1455.74 417.42 1455.2 416.873 1454.83 416.63L1402.52 336.796V415.172C1402.52 416.387 1402.09 417.42 1401.24 418.27C1400.39 419.121 1399.3 419.546 1397.96 419.546H1382.65Z" fill="#232526"/>
<path d="M1539.59 419.546C1538.38 419.546 1537.34 419.121 1536.49 418.27C1535.64 417.42 1535.22 416.387 1535.22 415.172V314.377H1501.5C1500.28 314.377 1499.25 313.951 1498.4 313.101C1497.55 312.25 1497.12 311.217 1497.12 310.002V296.514C1497.12 295.178 1497.55 294.084 1498.4 293.233C1499.25 292.383 1500.28 291.957 1501.5 291.957H1594.45C1595.79 291.957 1596.89 292.383 1597.74 293.233C1598.59 294.084 1599.01 295.178 1599.01 296.514V310.002C1599.01 311.217 1598.59 312.25 1597.74 313.101C1596.89 313.951 1595.79 314.377 1594.45 314.377H1560.92V415.172C1560.92 416.387 1560.49 417.42 1559.64 418.27C1558.79 419.121 1557.7 419.546 1556.36 419.546H1539.59Z" fill="#232526"/>
<mask id="mask0_362_1019" style="mask-type:alpha" maskUnits="userSpaceOnUse" x="0" y="0" width="500" height="500">
<path fill-rule="evenodd" clip-rule="evenodd" d="M250 500C388.071 500 500 388.071 500 250C500 111.929 388.071 0 250 0C111.929 0 0 111.929 0 250C0 388.071 111.929 500 250 500ZM111.355 288.118C109.211 281.847 102.389 278.501 96.1183 280.645C89.8472 282.789 86.5012 289.61 88.6449 295.881C111.717 363.377 175.172 412 250 412C324.827 412 388.282 363.377 411.355 295.881C413.498 289.61 410.152 282.789 403.881 280.645C397.61 278.501 390.789 281.847 388.645 288.118C368.744 346.336 314.113 388 250 388C185.886 388 131.256 346.336 111.355 288.118Z" fill="#4C80F2"/>
</mask>
<g mask="url(#mask0_362_1019)">
<path d="M500 250C500 388.071 388.071 500 250 500C111.929 500 0 388.071 0 250C0 111.928 111.929 -0.000488281 250 -0.000488281C388.071 -0.000488281 500 111.928 500 250Z" fill="#02AAD8"/>
<path d="M516.531 165.575C497.988 183.9 413.856 195.659 353.573 140.706C237.268 34.6854 177.059 11.1252 97.6825 53.01C49.2237 78.5805 71.5045 6.7622 89.1747 -31.4141H273.075L516.531 -4.5816V165.575Z" fill="#57BB73"/>
<path d="M221.861 253.272C41.756 199.868 -4.14278 275.523 -4.57908 320.025C-21.5948 292.975 -63.2464 206.956 -4.57908 160.34C88.5863 86.311 217.273 146.775 318.565 194.368C348.907 208.624 376.791 221.726 400.526 229.711C470.552 253.271 507.856 238.656 513.746 224.476C524.435 248.036 539.4 311.648 513.746 320.025C481.974 330.4 447.632 320.217 228.044 255.105L228.043 255.105L221.861 253.272Z" fill="#57BB73"/>
<path d="M207.965 419.276C121.054 421.894 140.775 474.031 161.499 499.773L67.9126 472.286C65.9799 454.699 59.6225 438.945 53.8394 424.615C40.0399 390.421 29.5098 364.328 90.1639 340.742C168.252 310.377 316.438 333.029 441.267 352.111C467.087 356.058 491.908 359.853 514.902 362.993C538.68 364.738 567.912 376.737 494.614 410.768C434.902 438.491 377.414 432.303 314.542 425.535C280.941 421.919 245.803 418.136 207.965 419.276Z" fill="#57BB73"/>
<circle cx="250" cy="250" r="249.5" fill="white" fill-opacity="0.06"/>
<circle cx="250" cy="250" r="249.5" fill="url(#paint0_radial_362_1019)" fill-opacity="0.16"/>
<circle cx="250" cy="250" r="249.5" stroke="url(#paint1_linear_362_1019)"/>
<g style="mix-blend-mode:soft-light" opacity="0.2">
<circle cx="250" cy="250" r="250" fill="url(#paint2_radial_362_1019)"/>
</g>
<g style="mix-blend-mode:overlay" opacity="0.3">
<circle cx="250" cy="250" r="250" fill="url(#paint3_radial_362_1019)"/>
</g>
<path fill-rule="evenodd" clip-rule="evenodd" d="M96.1186 280.645C102.39 278.502 109.211 281.848 111.355 288.119C131.256 346.337 185.886 388 250 388C314.114 388 368.744 346.337 388.645 288.119C390.789 281.848 397.61 278.502 403.882 280.645C410.153 282.789 413.499 289.611 411.355 295.882C388.283 363.377 324.828 412 250 412C175.172 412 111.718 363.377 88.6452 295.882C86.5015 289.611 89.8474 282.789 96.1186 280.645Z" fill="#FEF4EA"/>
</g>
</g>
<defs>
<radialGradient id="paint0_radial_362_1019" cx="0" cy="0" r="1" gradientUnits="userSpaceOnUse" gradientTransform="translate(202.621 141.129) rotate(59.196) scale(186.021 182.184)">
<stop stop-color="#A4A4A4" stop-opacity="0"/>
<stop offset="1" stop-opacity="0.54"/>
</radialGradient>
<linearGradient id="paint1_linear_362_1019" x1="352.273" y1="9.3583" x2="276.07" y2="241.31" gradientUnits="userSpaceOnUse">
<stop stop-color="white" stop-opacity="0.17"/>
<stop offset="1" stop-color="white" stop-opacity="0"/>
</linearGradient>
<radialGradient id="paint2_radial_362_1019" cx="0" cy="0" r="1" gradientUnits="userSpaceOnUse" gradientTransform="translate(139.617 135.585) rotate(62.7583) scale(400.807 395.579)">
<stop stop-color="white"/>
<stop offset="0.674665" stop-color="#4B4058" stop-opacity="0.62"/>
<stop offset="0.855039" stop-color="#433D4B"/>
</radialGradient>
<radialGradient id="paint3_radial_362_1019" cx="0" cy="0" r="1" gradientUnits="userSpaceOnUse" gradientTransform="translate(191.028 149.194) rotate(68.782) scale(367.666)">
<stop stop-color="white"/>
<stop offset="1" stop-color="#434343" stop-opacity="0"/>
</radialGradient>
<clipPath id="clip0_362_1019">
<rect width="1600" height="500" fill="white"/>
</clipPath>
</defs>
</svg>
